<svg width="31" height="31" viewBox="0 0 31 31" fill="none" xmlns="http://www.w3.org/2000/svg">
<rect x="0.972168" y="0.694336" width="29.7778" height="29.7778" rx="14.8889" fill="#017D6E"/>
<path d="M21.9382 12.82L14.4938 20.2645C14.4289 20.3295 14.3519 20.3811 14.267 20.4164C14.1822 20.4516 14.0913 20.4697 13.9994 20.4697C13.9076 20.4697 13.8166 20.4516 13.7318 20.4164C13.6469 20.3811 13.5699 20.3295 13.505 20.2645L10.2481 17.0075C10.1832 16.9426 10.1317 16.8655 10.0966 16.7807C10.0614 16.6959 10.0433 16.605 10.0433 16.5131C10.0433 16.4213 10.0614 16.3304 10.0966 16.2456C10.1317 16.1608 10.1832 16.0837 10.2481 16.0188C10.313 15.9539 10.3901 15.9024 10.4749 15.8672C10.5597 15.8321 10.6507 15.814 10.7425 15.814C10.8343 15.814 10.9252 15.8321 11.01 15.8672C11.0948 15.9024 11.1719 15.9539 11.2368 16.0188L14 18.782L20.9507 11.8325C21.0818 11.7013 21.2596 11.6277 21.445 11.6277C21.6304 11.6277 21.8083 11.7013 21.9394 11.8325C22.0705 11.9636 22.1441 12.1414 22.1441 12.3268C22.1441 12.5122 22.0705 12.6901 21.9394 12.8212L21.9382 12.82Z" fill="white"/>
</svg>
