<svg width="341" height="178" viewBox="0 0 341 178" fill="none" xmlns="http://www.w3.org/2000/svg">
<path d="M386.63 364.933C349.036 406.223 280.226 442.514 239.114 461.887C218.909 471.407 195.251 466.682 179.289 451.058C162.893 435.009 158.396 411.391 165.914 391.192C167.454 387.054 161.337 379.965 157.343 381.847V381.847C137.138 391.368 113.48 386.643 97.5175 371.018C75.9326 349.891 74.9692 315.644 94.8935 293.35C73.031 313.747 38.7717 313.517 17.1868 292.389C1.22457 276.765 -4.00611 253.213 5.08015 232.809C23.5679 191.292 58.3788 121.721 98.8547 83.2518C132.89 50.9041 190.498 21.9503 226.934 5.53818C247.143 -3.56496 270.555 1.3043 286.395 16.8087C308.128 38.0812 309.097 72.5638 289.034 95.0093C311.045 74.4703 345.54 74.7007 367.272 95.973C383.112 111.477 388.481 134.78 379.813 155.18V155.18C377.961 159.539 384.819 165.232 389.246 163.548C409.255 155.938 432.741 160.055 449.044 176.013C464.884 191.518 470.253 214.82 461.585 235.22C445.956 271.998 418.242 330.213 386.63 364.933Z" fill="#34978B"/>
</svg>
