<svg width="238" height="224" viewBox="0 0 238 224" fill="none" xmlns="http://www.w3.org/2000/svg">
<path d="M-61.7485 -170.032C-9.49152 -189.714 68.2955 -190.751 113.72 -189.312C136.045 -188.604 154.968 -173.639 162.081 -152.465C169.387 -130.717 162.653 -107.636 146.773 -93.0633C143.52 -90.078 145.745 -80.9833 150.158 -80.8435V-80.8435C172.483 -80.1363 191.405 -65.1715 198.518 -43.9982C208.136 -15.3681 193.425 15.5702 165.545 26.369C194.29 18.146 224.696 33.9284 234.314 62.5583C241.426 83.7318 235.377 107.086 218.007 121.128C182.663 149.7 120.026 195.835 66.4852 211.695C21.4636 225.03 -43.0101 224.625 -82.9239 222.675C-105.063 221.594 -123.701 206.613 -130.759 185.601C-140.443 156.773 -125.628 125.621 -97.553 114.752C-126.496 123.037 -157.114 107.148 -166.798 78.32C-173.857 57.3087 -168.043 34.1131 -151.047 19.8853V19.8853C-147.416 16.8454 -150.936 8.65598 -155.644 8.14279C-176.925 5.82303 -195.971 -8.52139 -203.236 -30.1471C-210.294 -51.1584 -204.481 -74.354 -187.485 -88.5818C-156.843 -114.233 -105.69 -153.482 -61.7485 -170.032Z" fill="#34978B"/>
</svg>
