<svg width="68" height="68" viewBox="0 0 68 68" fill="none" xmlns="http://www.w3.org/2000/svg">
<rect x="1.43055" y="0.770942" width="66.0694" height="66.0694" rx="33.0347" fill="#017D6E"/>
<rect x="1.43055" y="0.770942" width="66.0694" height="66.0694" rx="33.0347" stroke="#34978B" stroke-width="0.930556"/>
<path d="M45.1667 37.5278C45.1667 37.8039 45.0848 38.0737 44.9314 38.3033C44.778 38.5328 44.56 38.7117 44.305 38.8174C44.0499 38.923 43.7693 38.9507 43.4985 38.8968C43.2277 38.843 42.979 38.71 42.7838 38.5148C42.5886 38.3196 42.4557 38.0709 42.4018 37.8001C42.348 37.5294 42.3756 37.2487 42.4812 36.9936C42.5869 36.7386 42.7658 36.5206 42.9953 36.3672C43.2249 36.2138 43.4948 36.132 43.7708 36.132C44.141 36.132 44.4961 36.279 44.7578 36.5408C45.0196 36.8026 45.1667 37.1576 45.1667 37.5278ZM44.6374 42.098C44.433 43.4157 43.7645 44.617 42.7525 45.4853C41.7405 46.3535 40.4515 46.8316 39.118 46.8334H36.3264C34.8461 46.8318 33.4268 46.2431 32.3801 45.1963C31.3333 44.1496 30.7446 42.7303 30.743 41.25V36.5379C28.9442 36.3113 27.2899 35.436 26.0906 34.0763C24.8913 32.7165 24.2294 30.9659 24.2292 29.1528V23.5695C24.2292 23.3227 24.3272 23.086 24.5017 22.9115C24.6762 22.737 24.9129 22.6389 25.1597 22.6389H27.9514C28.1982 22.6389 28.4349 22.737 28.6094 22.9115C28.7839 23.086 28.8819 23.3227 28.8819 23.5695C28.8819 23.8163 28.7839 24.053 28.6094 24.2275C28.4349 24.402 28.1982 24.5 27.9514 24.5H26.0903V29.1528C26.0902 29.8923 26.237 30.6245 26.5223 31.3068C26.8075 31.9891 27.2254 32.6079 27.7518 33.1274C28.2782 33.6468 28.9025 34.0565 29.5885 34.3327C30.2745 34.6089 31.0086 34.746 31.748 34.7361C34.7851 34.6966 37.2569 32.148 37.2569 29.0563V24.5H35.3958C35.149 24.5 34.9123 24.402 34.7378 24.2275C34.5633 24.053 34.4653 23.8163 34.4653 23.5695C34.4653 23.3227 34.5633 23.086 34.7378 22.9115C34.9123 22.737 35.149 22.6389 35.3958 22.6389H38.1875C38.4343 22.6389 38.671 22.737 38.8455 22.9115C39.02 23.086 39.118 23.3227 39.118 23.5695V29.0563C39.118 32.8762 36.2647 36.0692 32.6042 36.5368V41.25C32.6042 42.2372 32.9963 43.184 33.6944 43.882C34.3924 44.5801 35.3392 44.9722 36.3264 44.9722H39.118C39.9633 44.9709 40.7831 44.6823 41.4429 44.154C42.1027 43.6256 42.5634 42.8888 42.7495 42.0643C41.6257 41.8118 40.6354 41.1515 39.9704 40.211C39.3053 39.2706 39.0128 38.1169 39.1493 36.9732C39.2858 35.8295 39.8417 34.777 40.7094 34.0195C41.5771 33.262 42.695 32.8533 43.8466 32.8725C44.9983 32.8916 46.102 33.3373 46.944 34.1232C47.786 34.9092 48.3066 35.9795 48.405 37.1272C48.5034 38.2748 48.1726 39.4181 47.4767 40.3359C46.7807 41.2537 45.769 41.8808 44.6374 42.0957V42.098ZM46.5625 37.5278C46.5625 36.9757 46.3988 36.4359 46.092 35.9768C45.7853 35.5178 45.3493 35.1599 44.8391 34.9486C44.329 34.7373 43.7677 34.6821 43.2262 34.7898C42.6847 34.8975 42.1872 35.1634 41.7968 35.5538C41.4064 35.9442 41.1405 36.4416 41.0328 36.9832C40.9251 37.5247 40.9804 38.086 41.1917 38.5961C41.403 39.1062 41.7608 39.5422 42.2199 39.849C42.6789 40.1557 43.2187 40.3195 43.7708 40.3195C44.5112 40.3195 45.2213 40.0254 45.7448 39.5018C46.2684 38.9783 46.5625 38.2682 46.5625 37.5278Z" fill="white"/>
</svg>
