<svg width="68" height="68" viewBox="0 0 68 68" fill="none" xmlns="http://www.w3.org/2000/svg">
<rect x="1.29169" y="0.770942" width="66.0694" height="66.0694" rx="33.0347" fill="#017D6E"/>
<rect x="1.29169" y="0.770942" width="66.0694" height="66.0694" rx="33.0347" stroke="#34978B" stroke-width="0.930556"/>
<path d="M48.2417 24.4872C48.2284 24.2596 48.132 24.0447 47.9707 23.8835C47.8095 23.7222 47.5946 23.6258 47.367 23.6125C41.3463 23.2636 36.5121 25.0944 34.4346 28.5235C33.062 30.7906 33.0643 33.5439 34.416 36.1704C33.6466 37.0862 33.0844 38.1576 32.7677 39.311L30.8752 37.4115C31.7848 35.512 31.7499 33.5322 30.7589 31.8875C29.2235 29.3529 25.6792 27.9943 21.2789 28.2525C21.0512 28.2658 20.8364 28.3622 20.6751 28.5235C20.5139 28.6847 20.4174 28.8996 20.4041 29.1272C20.1447 33.5276 21.5045 37.0718 24.0391 38.6073C24.8755 39.1183 25.8367 39.3887 26.8168 39.3889C27.7682 39.3772 28.7048 39.1518 29.5573 38.7294L32.4653 41.6374V44.9723C32.4653 45.2191 32.5633 45.4557 32.7379 45.6303C32.9124 45.8048 33.1491 45.9028 33.3959 45.9028C33.6427 45.9028 33.8793 45.8048 34.0539 45.6303C34.2284 45.4557 34.3264 45.2191 34.3264 44.9723V41.542C34.3223 40.0616 34.8261 38.6246 35.7537 37.4708C36.9505 38.0963 38.2779 38.431 39.6283 38.4479C40.9338 38.4521 42.2151 38.0955 43.3307 37.4173C46.7598 35.3422 48.5953 30.5079 48.2417 24.4872ZM24.9988 37.016C23.2144 35.9354 22.2048 33.3775 22.2292 30.0834C25.5234 30.0554 28.0812 31.0686 29.1618 32.8529C29.726 33.7835 29.8179 34.8687 29.448 35.9866L26.6086 33.1472C26.4327 32.9801 26.1984 32.8883 25.9558 32.8914C25.7131 32.8945 25.4813 32.9923 25.3097 33.1638C25.1381 33.3354 25.0403 33.5673 25.0372 33.8099C25.0341 34.0526 25.1259 34.2869 25.293 34.4628L28.1324 37.3021C27.0146 37.672 25.9305 37.5802 24.9988 37.016ZM42.3664 35.8272C40.8077 36.7706 38.9757 36.8427 37.1146 36.0599L43.3598 29.8135C43.5269 29.6376 43.6187 29.4033 43.6156 29.1606C43.6125 28.918 43.5147 28.6862 43.3432 28.5146C43.1716 28.343 42.9397 28.2452 42.6971 28.2421C42.4544 28.239 42.2201 28.3308 42.0442 28.4979L35.7979 34.7361C35.0115 32.875 35.0825 31.0418 36.0305 29.4843C37.652 26.809 41.4975 25.3178 46.4213 25.4329C46.533 30.3556 45.0441 34.2057 42.3664 35.8272Z" fill="white"/>
</svg>
