<svg width="23" height="24" viewBox="0 0 23 24" fill="none" xmlns="http://www.w3.org/2000/svg">
<rect x="0.277794" y="0.95845" width="22.3333" height="22.3333" rx="11.1667" fill="#B0D7D2"/>
<rect x="0.743072" y="1.42373" width="21.4028" height="21.4028" rx="10.7014" stroke="#8AC3BC" stroke-opacity="0.15" stroke-width="0.930556"/>
<g clip-path="url(#clip0_1_249)">
<path d="M16.5625 10.264C16.563 9.40147 16.3456 8.55282 15.9303 7.79686C15.5151 7.04089 14.9155 6.40213 14.1873 5.9399C13.4591 5.47767 12.6259 5.20697 11.7651 5.15294C10.9043 5.0989 10.0438 5.26329 9.26349 5.63084C8.48322 5.99838 7.80848 6.55715 7.30196 7.25526C6.79543 7.95337 6.47355 8.76816 6.3662 9.62396C6.25886 10.4798 6.36953 11.3488 6.68795 12.1504C7.00636 12.952 7.52219 13.6601 8.18752 14.209V18.639C8.18746 18.7183 8.2077 18.7964 8.24631 18.8657C8.28492 18.935 8.34062 18.9933 8.40811 19.0351C8.4756 19.0768 8.55264 19.1006 8.63191 19.1041C8.71118 19.1077 8.79005 19.0909 8.86101 19.0554L11.4445 17.7666L14.0285 19.0583C14.0933 19.0893 14.1643 19.105 14.2361 19.1043C14.3595 19.1043 14.4779 19.0552 14.5651 18.968C14.6524 18.8807 14.7014 18.7624 14.7014 18.639V14.209C15.2835 13.7295 15.7523 13.1271 16.0741 12.4451C16.3959 11.763 16.5627 11.0181 16.5625 10.264ZM7.25696 10.264C7.25696 9.43577 7.50256 8.62616 7.96269 7.93753C8.42281 7.2489 9.07681 6.71217 9.84198 6.39523C10.6071 6.07829 11.4491 5.99536 12.2614 6.15694C13.0737 6.31852 13.8198 6.71734 14.4055 7.30297C14.9911 7.8886 15.3899 8.63474 15.5515 9.44704C15.7131 10.2593 15.6302 11.1013 15.3132 11.8665C14.9963 12.6316 14.4595 13.2856 13.7709 13.7458C13.0823 14.2059 12.2727 14.4515 11.4445 14.4515C10.3342 14.4502 9.26986 14.0087 8.48482 13.2236C7.69977 12.4386 7.2582 11.3742 7.25696 10.264ZM13.7709 17.8864L11.6521 16.8273C11.5875 16.795 11.5162 16.7781 11.4439 16.7781C11.3716 16.7781 11.3003 16.795 11.2357 16.8273L9.11808 17.8864V14.822C9.8383 15.1901 10.6356 15.382 11.4445 15.382C12.2533 15.382 13.0506 15.1901 13.7709 14.822V17.8864ZM11.4445 13.5209C12.0886 13.5209 12.7183 13.3299 13.2539 12.972C13.7895 12.6142 14.207 12.1055 14.4535 11.5104C14.7 10.9152 14.7645 10.2604 14.6388 9.62858C14.5132 8.99679 14.203 8.41646 13.7475 7.96097C13.292 7.50548 12.7116 7.19528 12.0799 7.06961C11.4481 6.94394 10.7932 7.00844 10.1981 7.25495C9.60296 7.50146 9.09429 7.91892 8.73641 8.45452C8.37854 8.99012 8.18752 9.61981 8.18752 10.264C8.18844 11.1275 8.53188 11.9554 9.14248 12.566C9.75307 13.1766 10.581 13.52 11.4445 13.5209ZM11.4445 7.93759C11.9046 7.93759 12.3544 8.07403 12.7369 8.32966C13.1195 8.58528 13.4177 8.94862 13.5938 9.37371C13.7698 9.7988 13.8159 10.2666 13.7262 10.7178C13.6364 11.1691 13.4148 11.5836 13.0895 11.909C12.7641 12.2343 12.3496 12.4559 11.8983 12.5457C11.447 12.6354 10.9793 12.5894 10.5542 12.4133C10.1291 12.2372 9.76577 11.939 9.51014 11.5564C9.25452 11.1739 9.11808 10.7241 9.11808 10.264C9.11808 9.64698 9.36318 9.05526 9.79946 8.61897C10.2357 8.18269 10.8275 7.93759 11.4445 7.93759Z" fill="#00352E"/>
</g>
<defs>
<clipPath id="clip0_1_249">
<rect width="14.8889" height="14.8889" fill="white" transform="translate(4.00002 4.68059)"/>
</clipPath>
</defs>
</svg>
