<svg width="68" height="68" viewBox="0 0 68 68" fill="none" xmlns="http://www.w3.org/2000/svg">
<rect x="0.722358" y="0.770942" width="66.0694" height="66.0694" rx="33.0347" fill="#017D6E"/>
<rect x="0.722358" y="0.770942" width="66.0694" height="66.0694" rx="33.0347" stroke="#34978B" stroke-width="0.930556"/>
<path d="M22.032 33.6195C22.1298 33.6928 22.241 33.7461 22.3594 33.7764C22.4778 33.8068 22.601 33.8135 22.7219 33.7962C22.8429 33.7789 22.9593 33.738 23.0645 33.6757C23.1696 33.6135 23.2615 33.5311 23.3348 33.4333C23.8982 32.6821 24.6288 32.0724 25.4687 31.6525C26.3085 31.2325 27.2347 31.0139 28.1737 31.0139C29.1127 31.0139 30.0388 31.2325 30.8787 31.6525C31.7186 32.0724 32.4492 32.6821 33.0126 33.4333C33.1608 33.6306 33.3814 33.7609 33.6257 33.7956C33.87 33.8303 34.1181 33.7665 34.3153 33.6183C34.3857 33.566 34.448 33.5037 34.5003 33.4333C35.0637 32.6821 35.7943 32.0724 36.6342 31.6525C37.474 31.2325 38.4002 31.0139 39.3392 31.0139C40.2782 31.0139 41.2043 31.2325 42.0442 31.6525C42.8841 32.0724 43.6147 32.6821 44.1781 33.4333C44.3263 33.6308 44.5469 33.7612 44.7913 33.796C45.0358 33.8308 45.284 33.7671 45.4814 33.6189C45.6789 33.4706 45.8093 33.25 45.8441 33.0056C45.8789 32.7612 45.8152 32.5129 45.667 32.3155C44.8433 31.2113 43.7449 30.3418 42.481 29.7937C43.1739 29.1611 43.6593 28.3338 43.8736 27.4203C44.0879 26.5069 44.0211 25.55 43.6818 24.6752C43.3425 23.8004 42.7467 23.0487 41.9726 22.5186C41.1984 21.9885 40.2821 21.7048 39.3438 21.7048C38.4056 21.7048 37.4893 21.9885 36.7151 22.5186C35.9409 23.0487 35.3451 23.8004 35.0059 24.6752C34.6666 25.55 34.5997 26.5069 34.814 27.4203C35.0283 28.3338 35.5138 29.1611 36.2067 29.7937C35.2941 30.1883 34.4651 30.7532 33.764 31.4582C33.0629 30.7532 32.2339 30.1883 31.3213 29.7937C32.0142 29.1611 32.4996 28.3338 32.7139 27.4203C32.9282 26.5069 32.8614 25.55 32.5221 24.6752C32.1828 23.8004 31.587 23.0487 30.8129 22.5186C30.0387 21.9885 29.1224 21.7048 28.1841 21.7048C27.2459 21.7048 26.3296 21.9885 25.5554 22.5186C24.7813 23.0487 24.1855 23.8004 23.8462 24.6752C23.5069 25.55 23.4401 26.5069 23.6544 27.4203C23.8687 28.3338 24.3541 29.1611 25.047 29.7937C23.7776 30.34 22.6737 31.21 21.8459 32.3167C21.7726 32.4144 21.7192 32.5257 21.6889 32.6441C21.6586 32.7624 21.6519 32.8856 21.6691 33.0066C21.6864 33.1276 21.7274 33.244 21.7896 33.3491C21.8519 33.4543 21.9343 33.5461 22.032 33.6195ZM39.3403 23.5694C39.8925 23.5694 40.4322 23.7332 40.8913 24.0399C41.3504 24.3467 41.7082 24.7827 41.9195 25.2928C42.1308 25.8029 42.1861 26.3642 42.0784 26.9057C41.9707 27.4473 41.7048 27.9447 41.3144 28.3351C40.9239 28.7255 40.4265 28.9914 39.885 29.0991C39.3434 29.2069 38.7821 29.1516 38.272 28.9403C37.7619 28.729 37.3259 28.3712 37.0192 27.9121C36.7124 27.453 36.5487 26.9133 36.5487 26.3611C36.5487 25.6207 36.8428 24.9106 37.3663 24.3871C37.8899 23.8636 38.6 23.5694 39.3403 23.5694ZM28.1737 23.5694C28.7258 23.5694 29.2656 23.7332 29.7246 24.0399C30.1837 24.3467 30.5415 24.7827 30.7528 25.2928C30.9641 25.8029 31.0194 26.3642 30.9117 26.9057C30.804 27.4473 30.5381 27.9447 30.1477 28.3351C29.7573 28.7255 29.2598 28.9914 28.7183 29.0991C28.1768 29.2069 27.6155 29.1516 27.1054 28.9403C26.5952 28.729 26.1592 28.3712 25.8525 27.9121C25.5457 27.453 25.382 26.9133 25.382 26.3611C25.382 25.6207 25.6761 24.9106 26.1997 24.3871C26.7232 23.8636 27.4333 23.5694 28.1737 23.5694ZM42.481 41.8909C43.1739 41.2583 43.6593 40.431 43.8736 39.5175C44.0879 38.6041 44.0211 37.6472 43.6818 36.7724C43.3425 35.8977 42.7467 35.1459 41.9726 34.6158C41.1984 34.0857 40.2821 33.8021 39.3438 33.8021C38.4056 33.8021 37.4893 34.0857 36.7151 34.6158C35.9409 35.1459 35.3451 35.8977 35.0059 36.7724C34.6666 37.6472 34.5997 38.6041 34.814 39.5175C35.0283 40.431 35.5138 41.2583 36.2067 41.8909C35.2941 42.2855 34.4651 42.8505 33.764 43.5555C33.0629 42.8505 32.2339 42.2855 31.3213 41.8909C32.0142 41.2583 32.4996 40.431 32.7139 39.5175C32.9282 38.6041 32.8614 37.6472 32.5221 36.7724C32.1828 35.8977 31.587 35.1459 30.8129 34.6158C30.0387 34.0857 29.1224 33.8021 28.1841 33.8021C27.2459 33.8021 26.3296 34.0857 25.5554 34.6158C24.7813 35.1459 24.1855 35.8977 23.8462 36.7724C23.5069 37.6472 23.4401 38.6041 23.6544 39.5175C23.8687 40.431 24.3541 41.2583 25.047 41.8909C23.7776 42.4373 22.6737 43.3072 21.8459 44.4139C21.7726 44.5117 21.7192 44.6229 21.6889 44.7413C21.6586 44.8597 21.6519 44.9829 21.6691 45.1038C21.6864 45.2248 21.7274 45.3412 21.7896 45.4463C21.8519 45.5515 21.9343 45.6433 22.032 45.7167C22.1298 45.79 22.241 45.8433 22.3594 45.8737C22.4778 45.904 22.601 45.9107 22.7219 45.8934C22.8429 45.8761 22.9593 45.8352 23.0645 45.7729C23.1696 45.7107 23.2615 45.6283 23.3348 45.5306C23.8982 44.7793 24.6288 44.1696 25.4687 43.7497C26.3085 43.3297 27.2347 43.1111 28.1737 43.1111C29.1127 43.1111 30.0388 43.3297 30.8787 43.7497C31.7186 44.1696 32.4492 44.7793 33.0126 45.5306C33.1608 45.7278 33.3814 45.8581 33.6257 45.8928C33.87 45.9275 34.1181 45.8637 34.3153 45.7155C34.3857 45.6632 34.448 45.6009 34.5003 45.5306C35.0637 44.7793 35.7943 44.1696 36.6342 43.7497C37.474 43.3297 38.4002 43.1111 39.3392 43.1111C40.2782 43.1111 41.2043 43.3297 42.0442 43.7497C42.8841 44.1696 43.6147 44.7793 44.1781 45.5306C44.3263 45.728 44.5469 45.8585 44.7913 45.8933C45.0358 45.9281 45.284 45.8643 45.4814 45.7161C45.6789 45.5679 45.8093 45.3473 45.8441 45.1028C45.8789 44.8584 45.8152 44.6102 45.667 44.4127C44.8433 43.3085 43.7449 42.4391 42.481 41.8909ZM28.1737 35.6667C28.7258 35.6667 29.2656 35.8304 29.7246 36.1372C30.1837 36.4439 30.5415 36.8799 30.7528 37.39C30.9641 37.9001 31.0194 38.4614 30.9117 39.003C30.804 39.5445 30.5381 40.0419 30.1477 40.4323C29.7573 40.8228 29.2598 41.0886 28.7183 41.1964C28.1768 41.3041 27.6155 41.2488 27.1054 41.0375C26.5952 40.8262 26.1592 40.4684 25.8525 40.0093C25.5457 39.5502 25.382 39.0105 25.382 38.4583C25.382 37.7179 25.6761 37.0079 26.1997 36.4843C26.7232 35.9608 27.4333 35.6667 28.1737 35.6667ZM39.3403 35.6667C39.8925 35.6667 40.4322 35.8304 40.8913 36.1372C41.3504 36.4439 41.7082 36.8799 41.9195 37.39C42.1308 37.9001 42.1861 38.4614 42.0784 39.003C41.9707 39.5445 41.7048 40.0419 41.3144 40.4323C40.9239 40.8228 40.4265 41.0886 39.885 41.1964C39.3434 41.3041 38.7821 41.2488 38.272 41.0375C37.7619 40.8262 37.3259 40.4684 37.0192 40.0093C36.7124 39.5502 36.5487 39.0105 36.5487 38.4583C36.5487 37.7179 36.8428 37.0079 37.3663 36.4843C37.8899 35.9608 38.6 35.6667 39.3403 35.6667Z" fill="white"/>
</svg>
