<svg width="68" height="68" viewBox="0 0 68 68" fill="none" xmlns="http://www.w3.org/2000/svg">
<rect x="0.861121" y="0.770942" width="66.0694" height="66.0694" rx="33.0347" fill="#017D6E"/>
<rect x="0.861121" y="0.770942" width="66.0694" height="66.0694" rx="33.0347" stroke="#34978B" stroke-width="0.930556"/>
<path d="M30.2038 23.2206C30.1434 22.9823 30.1797 22.7298 30.3047 22.5182C30.4298 22.3065 30.6336 22.153 30.8715 22.0911C32.8553 21.5795 34.9364 21.5795 36.9201 22.0911C37.1398 22.1474 37.3315 22.2819 37.459 22.4695C37.5864 22.6571 37.641 22.8848 37.6125 23.1098C37.5839 23.3348 37.4741 23.5416 37.3038 23.6914C37.1335 23.8412 36.9143 23.9236 36.6875 23.9231C36.609 23.9227 36.5308 23.9126 36.4548 23.8929C34.7764 23.4595 33.0153 23.4595 31.3368 23.8929C31.2183 23.9233 31.0949 23.93 30.9738 23.9126C30.8526 23.8953 30.7361 23.8542 30.6309 23.7917C30.5256 23.7293 30.4337 23.6467 30.3605 23.5487C30.2872 23.4507 30.234 23.3392 30.2038 23.2206ZM22.8862 31.7119C23.004 31.7446 23.127 31.7538 23.2483 31.7389C23.3697 31.7241 23.4869 31.6855 23.5933 31.6253C23.6997 31.5651 23.7932 31.4846 23.8684 31.3883C23.9437 31.292 23.9993 31.1818 24.0319 31.064C24.4956 29.3941 25.3762 27.8694 26.591 26.6334C26.75 26.455 26.8343 26.2222 26.8264 25.9834C26.8185 25.7445 26.719 25.5178 26.5485 25.3503C26.378 25.1828 26.1496 25.0874 25.9107 25.0837C25.6717 25.08 25.4405 25.1684 25.2649 25.3306C23.8298 26.7911 22.7891 28.5922 22.2406 30.565C22.2077 30.6827 22.1983 30.8057 22.2129 30.9271C22.2275 31.0484 22.2659 31.1657 22.3258 31.2722C22.3858 31.3787 22.4661 31.4723 22.5623 31.5478C22.6584 31.6232 22.7685 31.679 22.8862 31.7119ZM36.4548 43.7184C34.7764 44.1518 33.0153 44.1518 31.3368 43.7184C31.0993 43.6609 30.8488 43.6992 30.6392 43.8249C30.4297 43.9506 30.278 44.1536 30.2169 44.3902C30.1558 44.6268 30.1902 44.8779 30.3127 45.0893C30.4352 45.3007 30.6359 45.4555 30.8715 45.5202C32.8553 46.0318 34.9364 46.0318 36.9201 45.5202C37.1557 45.4555 37.3564 45.3007 37.4789 45.0893C37.6014 44.8779 37.6358 44.6268 37.5747 44.3902C37.5136 44.1536 37.3619 43.9506 37.1524 43.8249C36.9429 43.6992 36.6923 43.6609 36.4548 43.7184ZM43.7597 31.0663C43.8257 31.3042 43.9835 31.5061 44.1984 31.6276C44.4133 31.7491 44.6676 31.7802 44.9055 31.7142C45.1433 31.6482 45.3452 31.4904 45.4667 31.2755C45.5882 31.0607 45.6194 30.8063 45.5534 30.5685C45.0045 28.5959 43.9639 26.7948 42.529 25.3341C42.4442 25.2435 42.3422 25.1708 42.2288 25.1203C42.1155 25.0697 41.9932 25.0424 41.8692 25.0398C41.7451 25.0372 41.6218 25.0594 41.5065 25.1052C41.3911 25.151 41.2861 25.2194 41.1976 25.3063C41.1091 25.3933 41.0389 25.4971 40.9911 25.6116C40.9433 25.7261 40.9188 25.849 40.9192 25.9731C40.9196 26.0972 40.9448 26.2199 40.9934 26.3341C41.0419 26.4483 41.1128 26.5516 41.2018 26.638C42.4144 27.8745 43.294 29.398 43.7585 31.0663H43.7597ZM45.5557 37.044C44.94 39.2635 43.7017 41.2603 41.987 42.7983C41.8809 42.894 41.7543 42.9641 41.6168 43.0029C41.4793 43.0418 41.3347 43.0485 41.1943 43.0226C41.0538 42.9966 40.9212 42.9386 40.8067 42.8531C40.6922 42.7676 40.599 42.6569 40.5342 42.5296C39.9119 41.3036 38.9623 40.2738 37.7905 39.5545C36.6188 38.8352 35.2707 38.4544 33.8958 38.4544C32.5209 38.4544 31.1729 38.8352 30.0011 39.5545C28.8294 40.2738 27.8797 41.3036 27.2575 42.5296C27.1927 42.6568 27.0996 42.7674 26.9853 42.8529C26.871 42.9384 26.7385 42.9964 26.5982 43.0225C26.4578 43.0486 26.3134 43.042 26.176 43.0034C26.0386 42.9647 25.9119 42.8949 25.8058 42.7995C24.0911 41.2606 22.8527 39.263 22.2371 37.0428C22.1713 36.805 22.2026 36.5507 22.3242 36.3359C22.4458 36.1212 22.6477 35.9635 22.8856 35.8977C23.1235 35.8318 23.3777 35.8631 23.5925 35.9847C23.8072 36.1063 23.9649 36.3083 24.0308 36.5461C24.447 38.0499 25.2031 39.4381 26.2408 40.6034C27.2791 39.0974 28.7403 37.9329 30.44 37.2568C29.5279 36.5389 28.8623 35.5546 28.5357 34.4408C28.2092 33.327 28.2378 32.1391 28.6177 31.0423C28.9976 29.9455 29.7098 28.9944 30.6554 28.3213C31.601 27.6481 32.7328 27.2864 33.8935 27.2864C35.0542 27.2864 36.186 27.6481 37.1316 28.3213C38.0771 28.9944 38.7894 29.9455 39.1693 31.0423C39.5492 32.1391 39.5778 33.327 39.2512 34.4408C38.9246 35.5546 38.259 36.5389 37.347 37.2568C39.0467 37.9329 40.5079 39.0974 41.5461 40.6034C42.5838 39.4381 43.34 38.0499 43.7562 36.5461C43.7889 36.4284 43.8445 36.3182 43.9197 36.2219C43.995 36.1256 44.0885 36.0451 44.1949 35.9849C44.3013 35.9247 44.4185 35.8861 44.5398 35.8712C44.6611 35.8564 44.7842 35.8655 44.902 35.8982C45.0197 35.9309 45.1299 35.9865 45.2262 36.0618C45.3225 36.137 45.403 36.2305 45.4632 36.3369C45.5234 36.4433 45.562 36.5605 45.5769 36.6818C45.5917 36.8032 45.5826 36.9262 45.5499 37.044H45.5557ZM33.8958 36.5973C34.632 36.5973 35.3517 36.379 35.9638 35.97C36.5759 35.561 37.053 34.9797 37.3347 34.2995C37.6164 33.6194 37.6901 32.871 37.5465 32.1489C37.4029 31.4269 37.0484 30.7636 36.5278 30.2431C36.0073 29.7225 35.344 29.368 34.622 29.2244C33.8999 29.0808 33.1515 29.1545 32.4714 29.4362C31.7912 29.7179 31.2099 30.195 30.8009 30.8071C30.3919 31.4193 30.1736 32.1389 30.1736 32.8751C30.1736 33.8623 30.5658 34.809 31.2638 35.5071C31.9619 36.2052 32.9086 36.5973 33.8958 36.5973Z" fill="white"/>
</svg>
