<svg width="144" height="27" viewBox="0 0 144 27" fill="none" xmlns="http://www.w3.org/2000/svg">
                        <path
                            d="M14.0486 6.92101C14.0486 10.2937 11.2747 13.0278 7.85282 13.0278H1.65703V6.92101C1.65703 3.54833 4.43097 0.81424 7.85282 0.81424C11.2747 0.81424 14.0486 3.54833 14.0486 6.92101Z"
                            fill="#017D6E" />
                        <path
                            d="M14.0486 19.1345C14.0486 15.7619 16.8226 13.0278 20.2444 13.0278H26.4402V19.1345C26.4402 22.5072 23.6662 25.2413 20.2444 25.2413C16.8226 25.2413 14.0486 22.5072 14.0486 19.1345Z"
                            fill="#017D6E" />
                        <path
                            d="M1.65703 19.1345C1.65703 22.5072 4.43097 25.2413 7.85282 25.2413H14.0486V19.1345C14.0486 15.7619 11.2747 13.0278 7.85282 13.0278C4.43097 13.0278 1.65703 15.7619 1.65703 19.1345Z"
                            fill="#017D6E" />
                        <path
                            d="M26.4402 6.92101C26.4402 3.54833 23.6662 0.81424 20.2444 0.81424H14.0486V6.92101C14.0486 10.2937 16.8226 13.0278 20.2444 13.0278C23.6662 13.0278 26.4402 10.2937 26.4402 6.92101Z"
                            fill="#017D6E" />
                        <path
                            d="M36.4192 21.0278V7.1625H38.4664L43.6775 14.3836H42.6539L47.7719 7.1625H49.8192V21.0278H47.6417V9.74945L48.4606 9.97278L43.2308 17.1194H43.0075L37.8894 9.97278L38.6153 9.74945V21.0278H36.4192ZM57.2082 21.2511C56.2032 21.2511 55.3099 21.0216 54.5282 20.5625C53.759 20.091 53.1572 19.4582 52.7229 18.6642C52.2887 17.8577 52.0715 16.9581 52.0715 15.9656C52.0715 14.9481 52.2887 14.0486 52.7229 13.2669C53.1696 12.4853 53.7652 11.8711 54.5096 11.4244C55.254 10.9654 56.0978 10.7358 57.0407 10.7358C57.7976 10.7358 58.4738 10.8661 59.0693 11.1267C59.6649 11.3872 60.1674 11.747 60.5768 12.2061C60.9863 12.6528 61.2965 13.1677 61.5074 13.7508C61.7307 14.334 61.8424 14.9544 61.8424 15.6119C61.8424 15.7732 61.8362 15.9407 61.8238 16.1144C61.8114 16.2881 61.7865 16.4494 61.7493 16.5983H53.7279V14.9233H60.5582L59.5532 15.6864C59.6773 15.0784 59.6339 14.5387 59.4229 14.0672C59.2244 13.5833 58.9142 13.2049 58.4924 12.9319C58.0829 12.6466 57.599 12.5039 57.0407 12.5039C56.4824 12.5039 55.9861 12.6466 55.5518 12.9319C55.1176 13.2049 54.7826 13.6019 54.5468 14.1231C54.3111 14.6318 54.218 15.2521 54.2677 15.9842C54.2056 16.6666 54.2987 17.2621 54.5468 17.7708C54.8074 18.2795 55.1672 18.6766 55.6263 18.9619C56.0978 19.2473 56.6313 19.39 57.2268 19.39C57.8348 19.39 58.3497 19.2535 58.7715 18.9806C59.2058 18.7076 59.547 18.354 59.7952 17.9197L61.5074 18.7572C61.3089 19.2287 60.9987 19.6568 60.5768 20.0414C60.1674 20.4136 59.6711 20.7114 59.0879 20.9347C58.5172 21.1456 57.8906 21.2511 57.2082 21.2511ZM68.5476 21.2511C67.5798 21.2511 66.7113 21.0216 65.9421 20.5625C65.1852 20.091 64.5835 19.4582 64.1368 18.6642C63.7025 17.8701 63.4854 16.9768 63.4854 15.9842C63.4854 14.9916 63.7087 14.0982 64.1554 13.3042C64.6021 12.5101 65.2038 11.8835 65.9607 11.4244C66.7175 10.9654 67.5736 10.7358 68.529 10.7358C69.3355 10.7358 70.0489 10.8971 70.6693 11.2197C71.2897 11.5423 71.7797 11.989 72.1396 12.5597L71.8232 13.0436V6.93917H73.9076V21.0278H71.9162V18.9806L72.1582 19.3714C71.8108 19.9794 71.3145 20.4446 70.6693 20.7672C70.0241 21.0898 69.3169 21.2511 68.5476 21.2511ZM68.7523 19.2969C69.3355 19.2969 69.8566 19.1543 70.3157 18.8689C70.7872 18.5835 71.1532 18.1927 71.4137 17.6964C71.6867 17.1877 71.8232 16.6169 71.8232 15.9842C71.8232 15.3514 71.6867 14.7869 71.4137 14.2906C71.1532 13.7943 70.7872 13.4034 70.3157 13.1181C69.8566 12.8327 69.3355 12.69 68.7523 12.69C68.1692 12.69 67.6419 12.8327 67.1704 13.1181C66.6989 13.4034 66.3329 13.7943 66.0723 14.2906C65.8118 14.7869 65.6815 15.3514 65.6815 15.9842C65.6815 16.6169 65.8118 17.1877 66.0723 17.6964C66.3329 18.1927 66.6927 18.5835 67.1518 18.8689C67.6233 19.1543 68.1568 19.2969 68.7523 19.2969ZM76.3628 21.0278V10.9592H78.4659V21.0278H76.3628ZM76.3628 9.58195V7.1625H78.4659V9.58195H76.3628ZM84.3828 21.0278V7.1625H90.2267C91.0952 7.1625 91.8458 7.31759 92.4786 7.62778C93.1114 7.92556 93.5953 8.35982 93.9303 8.93056C94.2653 9.48889 94.4328 10.1527 94.4328 10.9219C94.4328 11.5919 94.2591 12.2061 93.9117 12.7644C93.5767 13.3104 93.0493 13.7446 92.3297 14.0672V13.1367C92.9625 13.3848 93.4774 13.7012 93.8744 14.0858C94.2715 14.4581 94.5568 14.8799 94.7305 15.3514C94.9167 15.8229 95.0097 16.3192 95.0097 16.8403C95.0097 18.1431 94.5817 19.1667 93.7255 19.9111C92.8818 20.6556 91.7217 21.0278 90.2453 21.0278H84.3828ZM86.5789 19.0736H90.4128C91.1448 19.0736 91.7279 18.8751 92.1622 18.4781C92.5965 18.0686 92.8136 17.5289 92.8136 16.8589C92.8136 16.1765 92.5965 15.6368 92.1622 15.2397C91.7279 14.8303 91.1448 14.6256 90.4128 14.6256H86.5789V19.0736ZM86.5789 12.69H90.2825C90.878 12.69 91.3557 12.5225 91.7155 12.1875C92.0754 11.8401 92.2553 11.3872 92.2553 10.8289C92.2553 10.2706 92.0754 9.8363 91.7155 9.52611C91.3557 9.21593 90.878 9.06083 90.2825 9.06083H86.5789V12.69ZM97.0641 21.0278V10.9592H99.0741V12.9878L98.8879 12.69C99.1113 12.0324 99.4711 11.5609 99.9674 11.2756C100.464 10.9778 101.059 10.8289 101.754 10.8289H102.368V12.7458H101.493C100.799 12.7458 100.234 12.963 99.7999 13.3972C99.378 13.8191 99.1671 14.427 99.1671 15.2211V21.0278H97.0641ZM103.807 21.0278V10.9592H105.91V21.0278H103.807ZM103.807 9.58195V7.1625H105.91V9.58195H103.807ZM113.022 21.2511C112.054 21.2511 111.185 21.0216 110.416 20.5625C109.659 20.091 109.057 19.4582 108.611 18.6642C108.177 17.8701 107.959 16.9768 107.959 15.9842C107.959 14.9916 108.183 14.0982 108.629 13.3042C109.076 12.5101 109.678 11.8835 110.435 11.4244C111.192 10.9654 112.048 10.7358 113.003 10.7358C113.809 10.7358 114.523 10.8971 115.143 11.2197C115.764 11.5423 116.254 11.989 116.614 12.5597L116.297 13.0436V6.93917H118.382V21.0278H116.39V18.9806L116.632 19.3714C116.285 19.9794 115.788 20.4446 115.143 20.7672C114.498 21.0898 113.791 21.2511 113.022 21.2511ZM113.226 19.2969C113.809 19.2969 114.331 19.1543 114.79 18.8689C115.261 18.5835 115.627 18.1927 115.888 17.6964C116.161 17.1877 116.297 16.6169 116.297 15.9842C116.297 15.3514 116.161 14.7869 115.888 14.2906C115.627 13.7943 115.261 13.4034 114.79 13.1181C114.331 12.8327 113.809 12.69 113.226 12.69C112.643 12.69 112.116 12.8327 111.644 13.1181C111.173 13.4034 110.807 13.7943 110.546 14.2906C110.286 14.7869 110.156 15.3514 110.156 15.9842C110.156 16.6169 110.286 17.1877 110.546 17.6964C110.807 18.1927 111.167 18.5835 111.626 18.8689C112.097 19.1543 112.631 19.2969 113.226 19.2969ZM125.694 25.1222C124.962 25.1222 124.286 25.0044 123.666 24.7686C123.045 24.5329 122.512 24.2041 122.065 23.7822C121.619 23.3728 121.284 22.8889 121.06 22.3306L122.996 21.5303C123.169 22.0018 123.486 22.3926 123.945 22.7028C124.416 23.013 124.993 23.1681 125.676 23.1681C126.209 23.1681 126.687 23.0626 127.109 22.8517C127.531 22.6531 127.866 22.3554 128.114 21.9583C128.362 21.5737 128.486 21.1084 128.486 20.5625V18.2919L128.858 18.72C128.511 19.3652 128.027 19.8553 127.407 20.1903C126.799 20.5253 126.11 20.6928 125.341 20.6928C124.41 20.6928 123.573 20.4756 122.828 20.0414C122.084 19.6071 121.494 19.0116 121.06 18.2547C120.638 17.4979 120.427 16.648 120.427 15.705C120.427 14.7496 120.638 13.8997 121.06 13.1553C121.494 12.4108 122.078 11.8215 122.81 11.3872C123.542 10.953 124.379 10.7358 125.322 10.7358C126.091 10.7358 126.774 10.9033 127.369 11.2383C127.977 11.5609 128.474 12.0324 128.858 12.6528L128.579 13.1739V10.9592H130.57V20.5625C130.57 21.431 130.36 22.2065 129.938 22.8889C129.528 23.5837 128.957 24.1296 128.225 24.5267C127.493 24.9237 126.65 25.1222 125.694 25.1222ZM125.583 18.7386C126.141 18.7386 126.637 18.6083 127.072 18.3478C127.506 18.0748 127.847 17.715 128.095 17.2683C128.356 16.8093 128.486 16.2944 128.486 15.7236C128.486 15.1529 128.356 14.638 128.095 14.1789C127.835 13.7198 127.487 13.36 127.053 13.0994C126.619 12.8265 126.129 12.69 125.583 12.69C125.012 12.69 124.503 12.8265 124.057 13.0994C123.61 13.36 123.256 13.7198 122.996 14.1789C122.748 14.6256 122.624 15.1405 122.624 15.7236C122.624 16.2819 122.748 16.7906 122.996 17.2497C123.256 17.7088 123.61 18.0748 124.057 18.3478C124.503 18.6083 125.012 18.7386 125.583 18.7386ZM137.759 21.2511C136.754 21.2511 135.861 21.0216 135.079 20.5625C134.31 20.091 133.708 19.4582 133.274 18.6642C132.84 17.8577 132.623 16.9581 132.623 15.9656C132.623 14.9481 132.84 14.0486 133.274 13.2669C133.721 12.4853 134.316 11.8711 135.061 11.4244C135.805 10.9654 136.649 10.7358 137.592 10.7358C138.349 10.7358 139.025 10.8661 139.621 11.1267C140.216 11.3872 140.719 11.747 141.128 12.2061C141.537 12.6528 141.848 13.1677 142.059 13.7508C142.282 14.334 142.394 14.9544 142.394 15.6119C142.394 15.7732 142.387 15.9407 142.375 16.1144C142.363 16.2881 142.338 16.4494 142.301 16.5983H134.279V14.9233H141.109L140.104 15.6864C140.229 15.0784 140.185 14.5387 139.974 14.0672C139.776 13.5833 139.465 13.2049 139.044 12.9319C138.634 12.6466 138.15 12.5039 137.592 12.5039C137.034 12.5039 136.537 12.6466 136.103 12.9319C135.669 13.2049 135.334 13.6019 135.098 14.1231C134.862 14.6318 134.769 15.2521 134.819 15.9842C134.757 16.6666 134.85 17.2621 135.098 17.7708C135.359 18.2795 135.718 18.6766 136.177 18.9619C136.649 19.2473 137.182 19.39 137.778 19.39C138.386 19.39 138.901 19.2535 139.323 18.9806C139.757 18.7076 140.098 18.354 140.346 17.9197L142.059 18.7572C141.86 19.2287 141.55 19.6568 141.128 20.0414C140.719 20.4136 140.222 20.7114 139.639 20.9347C139.068 21.1456 138.442 21.2511 137.759 21.2511Z"
                            fill="#101918" />
                    </svg>